<svg width="51" height="50" viewBox="0 0 51 50" fill="none" xmlns="http://www.w3.org/2000/svg">
<path d="M0.00395213 25.7386C0.242486 38.3729 11.203 45.4042 12.5632 46.2453C18.7349 50.0616 24.7254 50.0507 26.5476 49.9853C29.0719 49.895 35.8444 49.2626 41.9557 43.9073C43.1016 42.9026 49.7518 36.8806 50.6305 26.6062C50.7256 25.4987 51.5635 13.5809 43.3144 6.09943C39.0344 2.21771 33.9648 1.03232 32.1154 0.622652C28.6038 -0.156185 25.7309 -0.0300135 24.3465 0.0883696C22.3355 0.259714 12.6402 1.33762 5.82991 9.90794C4.4123 11.6915 -0.153057 17.4377 0.00395213 25.7386Z" fill="#E9CEBF"/>
<path d="M27.3637 30.5941C27.3794 30.5545 28.0591 30.9121 28.9538 30.7608C29.4562 30.6755 29.5812 30.5053 29.6262 30.4173C29.7315 30.211 29.6478 29.9625 29.6051 29.8359C29.5587 29.6978 29.4661 29.5649 29.2821 29.3054C29.1161 29.071 29.0721 29.0332 29.028 28.969C29.028 28.969 29.0064 28.936 28.9875 28.9021C28.9542 28.8419 28.8152 28.4826 28.9614 28.0586C29.0689 27.7463 29.2749 27.5616 29.4112 27.4428C29.6941 27.1961 29.9798 27.098 30.2659 27.003C30.533 26.9146 30.5438 26.9432 31.3004 26.7831C31.9077 26.6547 32.0759 26.5993 32.2077 26.5496C32.5329 26.4269 32.702 26.3631 32.8801 26.2061C33.3187 25.8199 33.361 25.268 33.37 25.1558C33.3992 24.7736 33.2845 24.4846 33.235 24.3641C33.1838 24.2397 33.1302 24.1482 32.7852 23.7044C32.2976 23.0772 32.0386 22.7887 31.7781 22.3177C31.7565 22.279 31.7376 22.2438 31.7115 22.1941C31.542 21.8722 31.3683 21.5045 31.2617 21.278C31.1934 21.1333 31.049 20.8258 30.8866 20.4524C30.5569 19.6938 30.3918 19.3142 30.323 19.0279C30.2775 18.8383 30.1233 18.1636 30.3113 17.3711C30.4575 16.7532 30.7867 16.1695 31.1776 15.4759C31.1835 15.4658 31.1893 15.4553 31.1952 15.4451C31.2662 15.3189 31.4862 14.927 31.7592 14.4195C31.8906 14.175 32.0354 13.8974 32.1924 13.5544C32.3143 13.2883 32.5185 12.8423 32.6503 12.4012C32.7056 12.2156 32.926 11.4376 32.8302 10.422C32.7313 9.37175 32.3467 8.62407 32.1051 8.16622C31.9513 7.87419 31.7228 7.44581 31.3058 6.96509C31.3058 6.96509 30.6252 6.18178 29.2317 5.40815C28.7977 5.16713 28.3753 5.01056 28.3753 5.01056C28.3627 5.00572 28.3524 5.0022 28.347 5C29.9559 5.47016 31.062 6.26139 31.5793 6.78653C31.8181 7.0293 32.3251 7.61645 32.6867 8.29157C32.7007 8.31796 32.7119 8.33863 32.7196 8.35402C32.985 8.86509 33.1149 9.30226 33.2458 9.73328C33.4078 10.2677 33.4451 10.5456 33.4604 10.6855C33.4707 10.7818 33.5045 11.1249 33.4671 11.577C33.4451 11.8435 33.4073 12.0375 33.3704 12.2248C33.2985 12.5894 33.2036 13.0702 32.9656 13.6322C32.9035 13.7791 32.9463 13.6608 32.4708 14.5998C32.2275 15.081 32.1928 15.1584 32.066 15.3915C31.8568 15.7759 31.8276 15.793 31.6162 16.1832C31.4061 16.5711 31.2991 16.7699 31.2114 17.0188C31.0845 17.379 31.044 17.6653 31.0314 17.7665C31.0049 17.9776 30.9752 18.2336 31.0314 18.5582C31.0661 18.7583 31.1218 18.9153 31.1664 19.0419C31.2271 19.2139 31.2698 19.2944 31.3913 19.5697C31.4785 19.7672 31.4641 19.7426 31.6162 20.0975C31.8024 20.5316 31.8951 20.7489 32.021 21.0211C32.0354 21.0528 32.1658 21.3206 32.4258 21.8568C32.4474 21.9016 32.4753 21.9584 32.5158 22.0327C32.6332 22.2482 32.7439 22.3995 32.8307 22.5165C33.0785 22.8507 33.1289 22.8974 33.3704 23.2202C33.5522 23.463 33.6376 23.5887 33.6853 23.66C33.7699 23.7867 33.8751 23.9463 33.9552 24.0998C34.0384 24.259 34.2237 24.6245 34.2251 25.1114C34.2255 25.2235 34.217 25.6066 34.0002 26.035C33.9435 26.1471 33.6808 26.6415 33.1006 26.9586C32.9395 27.0466 32.6633 27.12 32.111 27.2665C31.8928 27.3245 31.5213 27.4182 31.0764 27.5304C31.0683 27.5326 30.7251 27.6192 30.3117 27.7942C30.1426 27.8659 29.9537 27.9557 29.8619 28.1461C29.8471 28.1773 29.8169 28.2407 29.8129 28.326C29.8043 28.5155 29.9474 28.6378 30.0567 28.8067C30.2771 29.1484 30.3877 29.3208 30.417 29.3824C30.4876 29.5328 30.6091 29.7989 30.5875 30.1451C30.5798 30.2686 30.5609 30.5123 30.3949 30.7454C30.2128 31.0005 29.9559 31.0994 29.8435 31.143C28.884 31.5129 27.3398 30.6539 27.3637 30.5941Z" fill="white" stroke="white" stroke-miterlimit="10"/>
<path d="M13.2659 37.9667C15.5693 39.623 17.6925 40.4358 19.1112 40.8567C22.0705 41.7355 23.455 41.3533 24.149 41.0326C24.4751 40.8822 25.1539 40.5576 25.5434 39.8451C25.8705 39.2474 25.8439 38.6502 25.8255 38.2275C25.7674 36.9041 25.1571 36.4115 25.5007 35.6559C25.5947 35.4492 25.7229 35.3221 25.9798 35.0688C26.5447 34.5111 27.2577 34.1834 27.5356 34.0576C27.8532 33.9142 27.9841 33.8857 28.1798 33.7203C28.2859 33.6306 28.5833 33.3724 28.6759 32.9506C28.7897 32.4325 28.5239 31.9905 28.4479 31.8643C28.2787 31.5832 27.9364 31.1936 26.4359 30.7023C25.8232 30.5017 24.9794 30.2717 23.9448 30.1274C26.6221 30.1723 28.6683 30.7968 29.2238 31.6347C29.5814 32.1739 29.5958 32.6924 29.5958 32.6924C29.5985 32.794 29.6061 33.3724 29.2053 33.843C29.0385 34.0387 28.8581 34.1447 28.4973 34.3567C28.1627 34.5533 28.1253 34.5265 27.7556 34.7283C27.4502 34.8955 27.1218 35.0776 26.7975 35.3964C26.5312 35.6581 26.3868 35.7975 26.314 36.0293C26.1943 36.4097 26.3891 36.6415 26.5326 37.2498C26.5407 37.2837 26.6918 37.9425 26.6342 38.6466C26.6113 38.9255 26.5515 39.5575 26.1588 40.2014C25.6604 41.0181 24.8962 41.355 24.4756 41.5657C24.4756 41.5657 23.3772 42.0653 21.8905 41.9927C19.928 41.8973 16.7308 40.5216 13.2659 37.9667Z" fill="white" stroke="white" stroke-miterlimit="10"/>
</svg>
